#!OML:ASF F:\VICON\USERDATA\INSTALL\rory3\rory3.ASF
:FULLY-SPECIFIED
:DEGREES
215
root 0.631246 16.3044 -13.4419 30.333 0.152331 -1.45536
lowerback -15.1264 0.753667 -0.598264
upperback -10.3833 1.07783 0.100903
thorax -2.53823 0.5853 0.576128
lowerneck -16.3966 -0.132104 -4.06491
upperneck 21.0827 2.24946 -5.5166
head 9.42421 0.0982272 -0.940229
rclavicle -3.59676e-015 -2.78299e-015
rhumerus -55.2922 4.03308 -85.4183
rradius 16.9368
rwrist -10.2326
rhand 22.5415 2.78271
rfingers 7.12502
rthumb 46.8949 -19.9297
lclavicle -3.59676e-015 -2.78299e-015
lhumerus -56.4657 5.21319 73.562
lradius 33.2691
lwrist 7.65344
lhand 14.2363 16.8892
lfingers 7.12502
lthumb 39.1323 42.3713
rfemur -23.0268 -5.1371 31.5733
rtibia 44.1072
rfoot 27.9957 -19.6446
rtoes 9.52614
lfemur -51.2897 6.17888 -36.5275
ltibia 40.3621
lfoot -40.6355 26.65
ltoes 9.09171
216
root 0.628541 16.3038 -13.4406 30.4311 0.195338 -1.47005
lowerback -15.1779 0.741251 -0.586543
upperback -10.4956 1.06011 0.0615025
thorax -2.63128 0.575244 0.525727
lowerneck -16.4528 -0.148526 -4.06434
upperneck 21.299 2.2143 -5.38847
head 9.50766 0.0878618 -0.902678
rclavicle 2.72708e-015 7.95139e-016
rhumerus -55.1489 4.0273 -85.3735
rradius 16.8587
rwrist -10.4344
rhand 22.7605 2.4783
rfingers 7.12502
rthumb 47.0975 -20.1449
lclavicle 2.72708e-015 7.95139e-016
lhumerus -56.3312 4.98436 73.5635
lradius 32.9628
lwrist 7.55185
lhand 14.0408 16.2353
lfingers 7.12502
lthumb 38.948 41.7702
rfemur -23.075 -5.10886 31.6277
rtibia 43.9773
rfoot 28.2061 -19.8611
rtoes 9.99767
lfemur -51.3568 6.03656 -36.4599
ltibia 40.404
lfoot -40.9991 26.2549
ltoes 9.9826
217
root 0.625969 16.306 -13.4399 30.566 0.210206 -1.4036
lowerback -15.2107 0.671316 -0.702305
upperback -10.6495 0.980658 0.050663
thorax -2.78155 0.541858 0.568523
lowerneck -16.4646 -0.0969806 -4.00506
upperneck 21.5141 2.28168 -5.37158
head 9.58615 0.118153 -0.899967
rclavicle 1.32937e-015 -4.07509e-015
rhumerus -55.1517 4.17329 -85.359
rradius 16.9947
rwrist -10.3665
rhand 23.1808 2.16807
rfingers 7.12502
rthumb 47.4858 -20.2811
lclavicle 1.32937e-015 -4.07509e-015
lhumerus -56.4305 4.66436 73.6905
lradius 33.0505
lwrist 7.45907
lhand 13.8768 15.817
lfingers 7.12502
lthumb 38.7934 41.3959
rfemur -23.1819 -5.12284 31.5891
rtibia 43.8787
rfoot 28.2794 -20.0061
rtoes 10.546
lfemur -51.4212 5.71566 -36.3955
ltibia 40.4471
lfoot -41.5293 25.8125
ltoes 11.3543
218
root 0.623426 16.3058 -13.4368 30.6529 0.2236 -1.41249
lowerback -15.286 0.613584 -0.745009
upperback -10.7738 0.909196 0.0770499
thorax -2.87698 0.509648 0.611262
lowerneck -16.1451 0.00737141 -4.25163
upperneck 21.5853 2.40889 -5.09467
head 9.54607 0.191311 -0.746458
rclavicle -7.21837e-015 3.37934e-015
rhumerus -55.2088 4.3362 -85.2909
rradius 17.0685
rwrist -10.0458
rhand 23.5328 2.34677
rfingers 7.12502
rthumb 47.8108 -19.9538
lclavicle -7.21837e-015 3.37934e-015
lhumerus -56.5611 4.56714 73.6195
lradius 33.2241
lwrist 7.36187
lhand 14.1171 15.7159
lfingers 7.12502
lthumb 39.0199 41.2302
rfemur -23.2713 -5.10185 31.6213
rtibia 43.9013
rfoot 28.0457 -20.3056
rtoes 11.2499
lfemur -51.5416 5.67947 -36.3787
ltibia 40.4272
lfoot -41.3013 26.2641
ltoes 10.3087
219
root 0.619884 16.3058 -13.4311 30.6349 0.135009 -1.34647
lowerback -15.3456 0.585687 -0.903279
upperback -10.7909 0.890497 0.0543876
thorax -2.8666 0.507933 0.674764
lowerneck -16.2513 0.0168664 -4.56451
upperneck 21.7997 2.42976 -4.69449
head 9.63222 0.211476 -0.554572
rclavicle 9.73113e-015 1.98785e-015
rhumerus -55.0882 4.49177 -85.3148
rradius 17.0452
rwrist -9.93383
rhand 23.4884 2.77392
rfingers 7.12502
rthumb 47.7698 -19.5456
lclavicle 9.73113e-015 1.98785e-015
lhumerus -56.4321 4.49192 73.5118
lradius 33.2223
lwrist 7.3396
lhand 14.3001 15.3822
lfingers 7.12502
lthumb 39.1925 40.8468
rfemur -23.2345 -5.05578 31.523
rtibia 43.8947
rfoot 27.5245 -20.9203
rtoes 12.6014
lfemur -51.5466 5.66897 -36.4304
ltibia 40.4148
lfoot -41.0181 26.8552
ltoes 9.28935
220
root 0.615925 16.3079 -13.425 30.5289 0.0546127 -1.31918
lowerback -15.2506 0.553127 -0.996664
upperback -10.8544 0.856223 0.0302039
thorax -2.98593 0.495458 0.695861
lowerneck -16.4178 0.0108505 -4.81637
upperneck 22.1153 2.44124 -4.36767
head 9.76764 0.219488 -0.399458
rclavicle -2.00338e-015 3.97569e-016
rhumerus -54.9607 4.68502 -85.4146
rradius 16.8843
rwrist -9.85587
rhand 23.676 2.8296
rfingers 7.12502
rthumb 47.9429 -19.4098
lclavicle -2.00338e-015 3.97569e-016
lhumerus -56.3502 4.25784 73.5522
lradius 33.2177
lwrist 7.5152
lhand 14.2835 15.5889
lfingers 7.12502
lthumb 39.1768 41.058
rfemur -23.0982 -5.07608 31.4749
rtibia 43.8532
rfoot 27.4877 -20.8177
rtoes 12.3169
lfemur -51.3732 5.59664 -36.3749
ltibia 40.4279
lfoot -41.3252 26.7127
ltoes 9.89759
221
root 0.616096 16.3108 -13.4176 30.3988 0.13623 -1.43763
lowerback -15.1271 0.527882 -0.802551
upperback -10.9116 0.798735 0.0245084
thorax -3.1082 0.455825 0.571935
lowerneck -16.1642 0.113163 -4.86909
upperneck 22.0271 2.54401 -4.24851
head 9.68543 0.283322 -0.33545
rclavicle -4.23039e-015 -4.57205e-015
rhumerus -54.9633 5.02685 -85.7488
rradius 16.886
rwrist -9.84528
rhand 23.7933 2.7744
rfingers 7.12502
rthumb 48.0511 -19.4146
lclavicle -4.23039e-015 -4.57205e-015
lhumerus -56.3698 4.03296 73.559
lradius 33.5015
lwrist 7.73132
lhand 14.4488 16.4181
lfingers 7.12502
lthumb 39.3326 41.8421
rfemur -22.8953 -5.23334 31.6127
rtibia 43.7872
rfoot 27.6459 -20.4262
rtoes 11.7622
lfemur -51.1608 5.50738 -36.1309
ltibia 40.4581
lfoot -41.6655 26.3759
ltoes 10.9803
222
root 0.613797 16.3112 -13.4102 30.3538 0.22101 -1.57975
lowerback -15.1296 0.528797 -0.648085
upperback -10.9158 0.782408 0.0286808
thorax -3.10869 0.439019 0.487611
lowerneck -16.1576 0.148483 -4.8607
upperneck 21.991 2.58042 -4.21659
head 9.67057 0.305946 -0.320843
rclavicle -1.23806e-014 -1.78906e-015
rhumerus -55.0531 5.16527 -85.8935
rradius 17.2106
rwrist -9.71148
rhand 24.0361 2.54603
rfingers 7.12502
rthumb 48.2747 -19.5376
lclavicle -1.23806e-014 -1.78906e-015
lhumerus -56.2657 3.87033 73.5235
lradius 33.6505
lwrist 7.73443
lhand 14.5952 16.7734
lfingers 7.12502
lthumb 39.4705 42.1571
rfemur -22.7734 -5.26308 31.7933
rtibia 43.721
rfoot 27.675 -20.4598
rtoes 12.3312
lfemur -51.1293 5.53213 -35.9347
ltibia 40.5036
lfoot -41.517 26.5778
ltoes 10.5644
223
root 0.608811 16.3124 -13.403 30.4202 0.118506 -1.50816
lowerback -15.1996 0.501992 -0.80764
upperback -11.0353 0.76439 -0.00595287
thorax -3.20367 0.438361 0.538605
lowerneck -16.0075 0.137838 -4.89769
upperneck 22.0656 2.56446 -4.19889
head 9.66833 0.296972 -0.311147
rclavicle 5.23984e-015 3.37934e-015
rhumerus -55.1495 5.2991 -85.9712
rradius 17.2649
rwrist -9.56518
rhand 24.3483 1.83521
rfingers 7.12502
rthumb 48.5622 -20.111
lclavicle 5.23984e-015 3.37934e-015
lhumerus -56.3813 3.65984 73.5378
lradius 33.789
lwrist 7.80076
lhand 14.6794 16.5971
lfingers 7.12502
lthumb 39.5498 41.9574
rfemur -22.8171 -5.28009 31.7007
rtibia 43.6641
rfoot 27.9328 -20.214
rtoes 11.9236
lfemur -51.2346 5.6054 -36.0683
ltibia 40.5482
lfoot -41.3056 27.0835
ltoes 9.03044
224
root 0.604256 16.3142 -13.3991 30.5176 0.124547 -1.48225
lowerback -15.1318 0.460558 -0.876359
upperback -11.3077 0.715206 -0.0346765
thorax -3.53613 0.418856 0.538374
lowerneck -15.725 0.175657 -4.8699
upperneck 22.3037 2.60021 -4.18363
head 9.69931 0.313381 -0.307198
rclavicle -5.29575e-016 5.96354e-015
rhumerus -55.4005 5.4561 -86.1411
rradius 16.9994
rwrist -9.38804
rhand 24.3632 1.69498
rfingers 7.12502
rthumb 48.5758 -20.2446
lclavicle -5.29575e-016 5.96354e-015
lhumerus -56.6774 3.3813 73.4867
lradius 33.9374
lwrist 7.72431
lhand 15.0214 16.6658
lfingers 7.12502
lthumb 39.8718 41.9304
rfemur -22.9107 -5.30034 31.7173
rtibia 43.6156
rfoot 28.134 -20.1375
rtoes 11.6535
lfemur -51.2932 5.45024 -36.0087
ltibia 40.5708
lfoot -41.6866 26.9052
ltoes 8.95885
225
root 0.60364 16.3159 -13.3932 30.4025 0.208674 -1.53185
lowerback -15.0263 0.438494 -0.828534
upperback -11.361 0.679688 -0.0325139
thorax -3.64845 0.398767 0.508216
lowerneck -15.8291 0.23701 -4.81796
upperneck 22.5779 2.69131 -4.15722
head 9.81599 0.35183 -0.295773
rclavicle -3.26131e-016 -3.97569e-015
rhumerus -55.5321 5.76214 -86.4615
rradius 17.0328
rwrist -9.60242
rhand 24.3068 1.52121
rfingers 7.12502
rthumb 48.5239 -20.4434
lclavicle -3.26131e-016 -3.97569e-015
lhumerus -56.6532 3.18977 73.4903
lradius 33.9668
lwrist 7.61039
lhand 15.3078 16.6418
lfingers 7.12502
lthumb 40.1413 41.825
rfemur -22.7445 -5.52107 31.8012
rtibia 43.5907
rfoot 28.2991 -20.1136
rtoes 11.9575
lfemur -51.0736 5.4525 -35.8935
ltibia 40.5586
lfoot -42.1105 26.0484
ltoes 10.822
226
root 0.601505 16.3155 -13.3868 30.2194 0.0482036 -1.51357
lowerback -15.0122 0.471119 -0.947927
upperback -11.2466 0.735439 -0.0658003
thorax -3.53326 0.431781 0.547399
lowerneck -16.1335 0.228493 -4.85681
upperneck 22.8072 2.71154 -4.09439
head 9.95413 0.352473 -0.265059
rclavicle -4.47266e-016 1.31198e-014
rhumerus -55.361 5.93507 -86.649
rradius 17.2245
rwrist -9.58352
rhand 24.3184 1.05305
rfingers 7.12502
rthumb 48.5346 -20.9064
lclavicle -4.47266e-016 1.31198e-014
lhumerus -56.4631 2.89386 73.7326
lradius 34.2711
lwrist 7.93185
lhand 15.3106 16.6179
lfingers 7.12502
lthumb 40.144 41.8004
rfemur -22.4921 -5.46786 31.6824
rtibia 43.5777
rfoot 28.1611 -20.419
rtoes 13.3959
lfemur -50.8585 5.55958 -35.9144
ltibia 40.5228
lfoot -42.0845 26.1042
ltoes 11.3437
227
root 0.597972 16.3163 -13.3825 30.2463 -0.158205 -1.38494
lowerback -15.1252 0.490085 -1.20329
upperback -11.2277 0.78921 -0.125312
thorax -3.4579 0.471405 0.635937
lowerneck -16.3587 0.122437 -5.05694
upperneck 23.0086 2.61573 -3.97029
head 10.0661 0.294834 -0.201424
rclavicle 2.11364e-015 3.97569e-016
rhumerus -55.2309 6.04747 -86.7188
rradius 17.2707
rwrist -9.30188
rhand 24.1535 1.55033
rfingers 7.12502
rthumb 48.3829 -20.4819
lclavicle 2.11364e-015 3.97569e-016
lhumerus -56.2356 2.65187 73.9389
lradius 34.4417
lwrist 8.19433
lhand 15.4345 17.0637
lfingers 7.12502
lthumb 40.2604 42.2106
rfemur -22.525 -5.31539 31.4846
rtibia 43.5759
rfoot 28.3836 -20.4002
rtoes 13.5426
lfemur -50.8549 5.43362 -35.9668
ltibia 40.4856
lfoot -42.3732 26.0767
ltoes 12.1253
228
root 0.596866 16.3158 -13.3759 30.3303 -0.220655 -1.31687
lowerback -15.2707 0.476339 -1.29366
upperback -11.2657 0.782231 -0.160573
thorax -3.42403 0.471824 0.650223
lowerneck -16.2863 0.132575 -5.26511
upperneck 22.9815 2.62768 -3.76768
head 10.0368 0.308052 -0.0940691
rclavicle -3.05166e-015 1.98785e-015
rhumerus -55.1757 6.30966 -86.9527
rradius 17.1608
rwrist -9.21949
rhand 23.9506 2.44272
rfingers 7.12502
rthumb 48.196 -19.6781
lclavicle -3.05166e-015 1.98785e-015
lhumerus -56.0158 2.63236 73.9043
lradius 34.4068
lwrist 8.21255
lhand 15.8566 17.8102
lfingers 7.12502
lthumb 40.6573 42.8346
rfemur -22.6075 -5.35242 31.397
rtibia 43.575
rfoot 28.6367 -20.4862
rtoes 13.7416
lfemur -50.8587 5.39745 -36.0443
ltibia 40.4458
lfoot -42.6144 25.7738
ltoes 13.0495
